<svg xmlns="http://www.w3.org/2000/svg" width="20" height="21"><defs></defs><g transform="translate(-40 -7)" fill="none" fill-rule="evenodd"><g fill="#FFF"><path d="M42.83 25.81V9.998a1.82 1.82 0 011.813-1.825h3.02c.334 0 .604.272.604.608a1.82 1.82 0 001.812 1.825A1.82 1.82 0 0051.89 8.78c0-.336.27-.608.604-.608h3.02c.998 0 1.81.818 1.81 1.825V25.81a1.82 1.82 0 01-1.812 1.825h-3.02a.605.605 0 01-.603-.608 1.82 1.82 0 00-1.812-1.825c-1 0-1.812.819-1.812 1.825 0 .336-.27.608-.604.608h-3.02c-1 0-1.812-.818-1.812-1.825h0zm4.29-16.42h-2.477a.606.606 0 00-.604.608V25.81c0 .336.27.609.604.609h2.477a3.029 3.029 0 012.959-2.433 3.03 3.03 0 012.959 2.433h2.475a.606.606 0 00.604-.61V9.999a.606.606 0 00-.604-.61h-2.476a3.03 3.03 0 01-2.96 2.434 3.028 3.028 0 01-2.958-2.433h0z" fill-rule="nonzero" stroke="#FFF" stroke-width=".3"/><path d="M45.7 13.902h9v1.49h-9zm0 2.98h9v1.49h-9zm1 2.98h7v1.49h-7z"/></g></g></svg>