<?xml version="1.0" encoding="utf-8"?>
<!-- Svg Vector Icons : http://www.onlinewebfonts.com/icon -->
<!DOCTYPE svg PUBLIC "-//W3C//DTD SVG 1.1//EN" "http://www.w3.org/Graphics/SVG/1.1/DTD/svg11.dtd">
<svg version="1.1" xmlns="http://www.w3.org/2000/svg" xmlns:xlink="http://www.w3.org/1999/xlink" x="0px" y="0px" viewBox="0 0 256 256" enable-background="new 0 0 256 256" xml:space="preserve">
<metadata> Svg Vector Icons : http://www.onlinewebfonts.com/icon </metadata>
<g><g><path fill="#000000" d="M128,42.9C42.8,42.9,10,127,10,127s33.4,86.1,118,86.1S246,127,246,127S213.2,42.9,128,42.9z M128,180.3c-29.1,0-52.6-23.6-52.6-52.6S98.9,75,128,75c29.1,0,52.6,23.6,52.6,52.6S157.1,180.3,128,180.3z"/><path fill="#000000" d="M98.5,127.4c0,16.4,13.3,29.7,29.7,29.7c16.4,0,29.7-13.3,29.7-29.7c0-16.4-13.3-29.7-29.7-29.7C111.7,97.7,98.5,111,98.5,127.4L98.5,127.4z"/></g></g>
</svg>