<svg xmlns="http://www.w3.org/2000/svg" width="20" height="21"><defs></defs><g transform="translate(-40 -7)" fill="none" fill-rule="evenodd"><path d="M57.111 12.633h-1.938a2.71 2.71 0 00.16-.896 2.683 2.683 0 00-1.898-2.576 2.653 2.653 0 00-2.99 1.098l-.445.6-.445-.61a2.671 2.671 0 00-2.222-1.2 2.673 2.673 0 00-2.506 3.584H42.89c-.987 0-1.77.797-1.77 1.792l-.008 9.855a1.78 1.78 0 001.778 1.792h14.222a1.78 1.78 0 001.778-1.792v-9.855c0-.995-.79-1.792-1.778-1.792zm-4.444-1.792c.488 0 .888.403.888.896s-.4.896-.888.896a.895.895 0 010-1.792zm-5.334 0a.895.895 0 010 1.792c-.489 0-.889-.403-.889-.896s.4-.896.89-.896zm9.778 13.439H42.89v-1.792h14.222v1.792zm0-4.48H42.89v-5.375h4.515l-1.849 2.535 1.44 1.048 2.116-2.902.89-1.22.888 1.22 2.115 2.902 1.44-1.048-1.849-2.535h4.516V19.8z" fill="#FFF"/></g></svg>