<svg xmlns="http://www.w3.org/2000/svg" width="16" height="17"><g fill="#353A45" opacity=".7"><path d="M15.407 7.059h-2.074c0-2.95-2.387-5.342-5.333-5.342S2.667 4.109 2.667 7.059H.593A.592.592 0 000 7.652v4.392c0 .328.265.594.593.594h3.259V7.296A4.099 4.099 0 018 3.26a4.098 4.098 0 014.148 4.036v4.155A4.098 4.098 0 018 15.487v1.187a5.336 5.336 0 005.191-4.042h2.216a.593.593 0 00.593-.594V7.652a.592.592 0 00-.593-.593zM1.185 11.45V8.246h1.482v3.205H1.185zm13.63 0h-1.482V8.246h1.482v3.205z"/><path d="M10.21 10.169a3.348 3.348 0 01-2.37 1.133 3.675 3.675 0 01-2.37-1.115l-.877.8a4.855 4.855 0 003.182 1.502h.089a4.442 4.442 0 003.17-1.483l-.824-.837z"/></g></svg>