<svg class="icon" viewBox="0 0 1682 1024" xmlns="http://www.w3.org/2000/svg" width="328.516" height="200"><path d="M397.166 25.746v925.111H166.254V454.875c0-71.68-1.683-114.688-5.12-129.17-3.438-14.482-12.873-25.454-28.307-32.914-15.36-7.314-49.737-11.045-103.131-11.045H6.876V173.714c111.615-23.99 196.388-73.362 254.244-147.968h136.046zm530.285 400.53c33.866 13.751 59.978 34.231 78.263 61.44 18.286 27.21 27.429 92.16 27.429 194.56 0 74.68-7.241 129.756-21.724 165.157-14.482 35.401-42.642 64.439-84.553 87.113-41.91 22.675-98.084 34.012-168.594 34.012-68.535 0-122.88-10.825-162.816-32.549-40.01-21.723-68.754-50.468-86.016-86.308-17.335-35.84-26.039-95.379-26.039-178.835 0-56.027 4.316-104.594 12.873-145.7 8.558-41.18 35.548-74.094 80.896-98.89a134.217 134.217 0 01-64.365-65.39c-14.263-29.988-21.358-67.949-21.358-114.029 0-79.652 22.089-139.337 66.267-179.2 44.179-39.643 110.3-59.611 198.217-59.611 101.815 0 172.032 21.211 210.944 63.488 38.84 42.276 58.295 102.62 58.295 181.101 0 49.884-6.436 85.943-19.163 108.032-12.8 22.09-38.985 43.96-78.556 65.683zM797.696 227.475c0-31.232-2.78-51.931-8.265-61.952-5.559-10.093-16.092-15.14-31.744-15.14-15.214 0-25.527 5.412-30.793 16.237-5.34 10.899-8.046 31.16-8.046 60.855v70.29c0 27.795 3.072 47.105 9.143 57.783 6.07 10.606 16.384 15.946 30.866 15.946 15.214 0 25.527-5.194 30.866-15.726 5.34-10.46 8.046-32.11 8.046-64.805v-63.488zm4.608 384.585c0-35.4-3.657-58.953-10.898-70.582-7.241-11.63-18.652-17.408-34.231-17.408-15.287 0-26.258 5.632-32.914 16.822-6.583 11.264-9.948 34.963-9.948 71.168v119.955c0 40.082 3.657 65.828 11.118 77.239 7.46 11.41 19.163 17.115 35.108 17.115 16.384 0 27.429-5.851 33.207-17.408 5.705-11.703 8.558-37.815 8.558-78.629V611.986zm305.737-192.585h205.093v-205.75h139.41V419.4h206.263v139.484h-206.263v204.507h-139.41V558.958h-205.166V419.4z" fill="#9ca0ab"/></svg>