<svg xmlns="http://www.w3.org/2000/svg" width="16" height="17"><g fill="none" fill-rule="evenodd" opacity=".7"><path stroke="#353A45" stroke-width="1.244" d="M7.99 1.459c2.035 0 3.878.816 5.212 2.137a7.226 7.226 0 010 10.3 7.387 7.387 0 01-5.212 2.136 7.384 7.384 0 01-5.212-2.137 7.226 7.226 0 010-10.3A7.39 7.39 0 017.99 1.46z"/><path d="M8.001 4.356c.49 0 .888.394.888.88s-.398.88-.89.88a.886.886 0 01-.888-.88c0-.486.398-.88.89-.88zm.888 7.716c-.002.45-.399.814-.89.815-.489-.001-.886-.365-.888-.815V7.81c0-.448.4-.815.89-.815s.888.367.888.815v4.262z" fill="#353A45"/></g></svg>