<svg width="32" height="37" fill="none" xmlns="http://www.w3.org/2000/svg"><path fill-rule="evenodd" clip-rule="evenodd" d="M22.4.264L.134.066v36h31.5V8.861L22.4.264zM11.72 23.63l3.163-2.563h.002l2.693 2.615a79.583 79.583 0 013.038-2.533c.217-.167.43-.334.638-.497v-.001c.269-.211.53-.416.787-.61.454-.342.95-.703 1.478-1.08a85.736 85.736 0 013.292-2.262l.84 1.144c-.927.67-1.796 1.41-2.6 2.225a45.066 45.066 0 00-1.621 1.63 71.314 71.314 0 00-6.098 7.534l-5.613-5.602zm4.975-10.93c0-.263-.065-.519-.183-.706-.121-.187-.281-.293-.45-.293h-7.69c-.352 0-.636.448-.636 1.002 0 .551.284.996.633.996h7.691c.17 0 .33-.105.452-.29.125-.214.189-.46.183-.709zm-.183 4.292c.118.187.183.443.183.71.005.247-.058.492-.183.706-.121.187-.281.292-.452.292H8.37c-.35 0-.633-.445-.633-.999 0-.55.284-.999.636-.999h7.69c.169 0 .329.105.45.29z" fill="#9ca0ab"/></svg>