<svg xmlns="http://www.w3.org/2000/svg" width="20" height="21"><defs></defs><g transform="translate(0 .944)" fill="none" fill-rule="evenodd"><path d="M1.883 9.82l3.798 2.046-.783 1.6-1.18-.634c1.071 2.69 3.612 4.528 6.471 4.528 2.596 0 4.967-1.495 6.189-3.902l.059-.116 1.51.846-.058.116c-1.52 2.994-4.47 4.855-7.7 4.855-3.569 0-6.738-2.301-8.063-5.667l-.553 1.11L0 13.899 1.883 9.82zm8.911-5.508v1.23c.53.126 1.155.422 1.53.88.407.496.631 1.135.62 1.896l.008.037-.07.185h-2.087v-.198c0-.368-.067-.64-.192-.807a.563.563 0 00-.476-.231c-.199 0-.333.058-.42.176-.098.134-.145.304-.145.52 0 .217.052.386.155.514.113.14.34.289.674.444.85.38 1.486.77 1.892 1.155.431.409.646.995.646 1.741 0 .71-.242 1.291-.672 1.728-.389.397-.933.646-1.569.743v1.335H9.523v-1.34c-.741-.098-1.229-.367-1.68-.8-.501-.477-.754-1.18-.738-2.085l.005-.045.09-.18h2.006v.196c0 .415.114.711.272.88.161.17.392.253.654.253.207 0 .36-.057.458-.174.104-.124.157-.288.157-.5 0-.25-.055-.442-.161-.57-.119-.143-.345-.29-.668-.437-.863-.36-1.51-.737-1.912-1.116-.426-.401-.652-.991-.652-1.753 0-.691.19-1.27.636-1.72.406-.41 1.003-.664 1.533-.757v-1.2h1.271zm-.983-3.209c3.569 0 6.737 2.301 8.063 5.666l.553-1.11L20 6.365l-1.883 4.078-3.797-2.045.782-1.601 1.18.634C15.21 4.74 12.67 2.902 9.81 2.902c-2.595 0-4.966 1.495-6.189 3.903l-.058.115-1.512-.845.147-.285C3.743 2.894 6.643 1.103 9.81 1.103z" fill="#353A45"/></g></svg>